<svg width="386" height="34" viewBox="0 0 386 34" fill="none" xmlns="http://www.w3.org/2000/svg">
<path d="M352.153 15.3967C351.442 15.2885 350.72 15.189 350.009 15.0765C348.996 14.9121 347.693 15.0332 347.133 14.4101C347.068 14.4534 347.004 14.4923 346.939 14.5356C347.036 14.6178 347.133 14.7043 347.251 14.7996C346.002 14.7173 344.795 14.6394 343.589 14.5572C343.556 14.5875 343.535 14.6135 343.503 14.6438C344.02 14.7519 344.537 14.8645 344.946 14.951C344.666 14.951 344.052 15.0289 343.858 14.938C342.587 14.3279 340.626 14.4577 339.097 14.1418C339.129 14.0899 339.161 14.0423 339.183 13.9903C340.174 14.0423 341.154 14.0899 342.145 14.1418C342.156 14.1288 342.167 14.1158 342.177 14.1028C341.833 14.0423 341.499 13.9817 341.154 13.9211C341.165 13.8908 341.176 13.8605 341.176 13.8302C342.037 13.8778 342.899 13.9254 343.761 13.973C343.783 13.9557 343.804 13.9384 343.826 13.9254C343.632 13.8778 343.449 13.8259 343.255 13.7783C343.244 13.7437 343.244 13.7134 343.233 13.6788C343.987 13.6398 344.731 13.6009 345.485 13.5619C345.474 13.5273 345.474 13.4927 345.463 13.4581C344.612 13.5706 343.836 13.3109 342.888 13.5057C342.361 13.6139 341.52 13.4408 340.852 13.3153C341.337 13.285 341.822 13.2547 342.307 13.2244C342.307 13.2028 342.296 13.1811 342.285 13.1595C341.553 13.1595 340.82 13.1595 339.937 13.1595C340.195 13.2936 340.378 13.3845 340.723 13.5619C339.484 13.4884 338.472 13.4105 337.448 13.3759C336.102 13.3326 334.744 13.3369 333.398 13.2936C333.086 13.285 332.784 13.1811 332.493 13.034C335.951 13.0037 339.42 12.9734 342.878 12.9474C342.878 12.9085 342.888 12.8652 342.888 12.8263C342.027 12.7484 341.154 12.6662 340.292 12.5883C340.292 12.5666 340.292 12.5493 340.303 12.5277C341.499 12.5277 342.705 12.5277 343.901 12.5277C343.912 12.4758 343.923 12.4238 343.944 12.3719C343.686 12.3719 343.416 12.3676 343.158 12.3719C342.738 12.3762 342.318 12.4022 341.897 12.3935C341.52 12.3849 341.133 12.3416 340.68 12.3113C340.799 12.2075 340.874 12.1339 340.939 12.0776C340.163 12.0084 339.409 11.9392 338.644 11.8699C338.655 11.844 338.655 11.8137 338.666 11.7877C339.474 11.8267 340.292 11.8656 341.1 11.9046C341.1 11.8656 341.1 11.831 341.1 11.792C341.391 11.8007 341.682 11.805 341.962 11.8137C341.962 11.792 341.973 11.7661 341.973 11.7444C340.023 11.6189 338.073 11.4935 335.822 11.3463C336.78 11.2814 337.513 11.2338 338.235 11.1862C338.235 11.1473 338.246 11.1083 338.246 11.0694C337.825 11.078 337.416 11.0953 336.996 11.0953C336.457 11.0953 335.897 11.1083 335.369 11.0607C334.895 11.0174 334.464 10.892 334.044 10.7102C335.122 10.7102 336.188 10.7102 337.265 10.7102C335.951 10.2558 334.454 10.6193 333.086 10.4765C333.086 10.4376 333.086 10.3986 333.086 10.3554C333.775 10.3554 334.475 10.377 335.165 10.351C336.436 10.3078 337.707 10.3857 338.989 10.1693C339.894 10.0178 341.046 10.113 342.081 10.1303C342.878 10.1433 343.675 10.2039 344.504 10.2429C344.16 10.2645 343.826 10.2861 343.503 10.3078C343.524 10.3554 343.535 10.403 343.556 10.4506C344.289 10.3813 345.043 10.3424 345.732 10.2299C346.293 10.1347 346.745 9.90099 347.305 9.81877C347.855 9.74088 348.501 9.79281 349.093 9.76684C349.535 9.74521 349.977 9.65866 350.418 9.65433C351.054 9.64568 351.69 9.68895 352.336 9.70626C352.788 9.71924 353.241 9.72357 353.704 9.73222C353.715 9.69328 353.726 9.65433 353.726 9.61539C353.241 9.60241 352.756 9.58942 352.271 9.57644C352.271 9.5548 352.271 9.53749 352.282 9.51586C353.165 9.48557 354.049 9.45528 354.932 9.42931C354.932 9.40768 354.932 9.39037 354.932 9.36873C350.752 9.36873 346.562 9.36873 342.382 9.36873C342.382 9.34276 342.382 9.3168 342.382 9.28651C343.901 9.21294 345.431 9.10043 346.95 9.08312C348.49 9.06581 350.041 9.16101 351.593 9.16534C353.693 9.16967 355.805 9.19996 357.884 9.0961C359.801 9.0009 361.676 8.74992 363.582 8.51191C361.665 8.4946 359.747 8.48162 357.841 8.45566C356.203 8.43402 354.512 8.48595 352.939 8.33449C350.655 8.1138 348.382 8.16572 346.088 8.12245C343.998 8.08351 341.919 7.97099 339.84 7.95801C338.913 7.95368 337.987 8.12245 337.05 8.19169C336.824 8.209 336.565 8.14841 336.069 8.09649C336.684 8.03158 337.061 7.99263 337.599 7.9407C336.543 7.58153 335.423 7.65942 334.367 7.55557C335.078 7.55557 335.779 7.55557 336.533 7.55557C336.145 7.49066 335.811 7.4344 335.466 7.37815C335.488 7.34353 335.499 7.30458 335.52 7.26996C336.285 7.30891 337.05 7.34786 337.815 7.38247C337.825 7.35651 337.836 7.33487 337.847 7.30891C337.718 7.27429 337.588 7.23967 337.459 7.20073C337.707 7.05359 338.159 7.12283 339.743 7.55557C339.463 7.59451 339.226 7.62913 339 7.65943C339.053 7.67241 339.107 7.68972 339.15 7.7027C340.852 7.7027 342.555 7.7027 344.257 7.7027C344.267 7.66375 344.267 7.62481 344.278 7.59019C342.576 7.45604 340.863 7.32189 339.161 7.18774C339.15 7.16611 339.14 7.14014 339.129 7.11851C341.854 7.06658 344.591 7.01465 347.316 6.95839C347.327 6.91512 347.327 6.87618 347.338 6.8329C347.068 6.78097 346.799 6.72472 346.325 6.63384C346.95 6.65548 347.348 6.66846 347.747 6.68144C347.758 6.66413 347.768 6.65115 347.779 6.63384C347.478 6.57759 347.165 6.517 346.756 6.43911C346.971 6.36122 347.111 6.31362 347.057 6.33525C344.957 6.26169 342.727 6.1838 340.497 6.11024C339.7 6.08427 338.892 6.07994 338.084 6.04965C336.921 6.00638 335.768 5.94579 334.615 5.89387C334.615 5.85925 334.626 5.8203 334.626 5.78568C339.053 5.78568 343.47 5.78568 347.898 5.78568C347.908 5.75539 347.908 5.72077 347.919 5.69048C346.831 5.65586 345.732 5.59095 344.644 5.58662C341.682 5.57797 338.72 5.62124 335.746 5.59961C334.227 5.59095 332.719 5.47844 331.2 5.43949C330.834 5.43084 330.446 5.53902 330.069 5.59095C329.875 5.61691 329.671 5.66452 329.477 5.65586C328.583 5.61259 327.688 5.5347 326.794 5.50873C325.394 5.46546 323.994 5.44382 322.593 5.42651C321.591 5.41353 320.579 5.42218 319.566 5.42218C319.598 5.39622 319.695 5.32698 319.835 5.22745C318.812 5.19284 317.832 5.17552 316.851 5.1236C315.289 5.0457 313.738 4.9505 312.187 4.84664C310.345 4.72115 308.513 4.54806 306.661 4.46151C305.907 4.42689 305.12 4.59133 304.334 4.63028C303.827 4.65624 303.3 4.64326 302.804 4.59999C301.425 4.47449 300.068 4.31871 298.7 4.17591C297.924 4.52209 296.578 4.14994 295.834 4.59998C295.726 4.6649 295.22 4.60864 294.897 4.60864C294.951 4.47017 294.994 4.32736 295.048 4.20187C294.057 4.40958 293.637 3.92059 292.883 3.81674C292.322 3.73884 291.751 3.67826 291.181 3.62201C290.771 3.58306 290.351 3.5744 289.942 3.54844C289.855 3.54411 289.769 3.52248 289.683 3.52248C288.811 3.50517 287.938 3.49219 287.001 3.47488C286.85 3.51382 286.559 3.66528 286.268 3.66528C285.148 3.66095 284.028 3.61335 282.907 3.57008C281.873 3.53113 280.839 3.4792 279.805 3.43593C278.48 3.384 277.155 3.34073 275.754 3.37102C276.379 3.45324 277.015 3.53979 277.639 3.62201C277.607 3.66528 277.575 3.70422 277.543 3.7475C276.325 3.5744 275.108 3.40131 273.891 3.22821C273.912 3.17629 273.923 3.12436 273.945 3.0681C275.668 3.0681 277.392 3.0681 279.18 3.0681C279.094 2.90799 278.124 2.92098 279.018 2.63104C276.702 2.5142 274.612 2.41035 272.329 2.29784C272.63 2.40602 272.803 2.47093 272.997 2.54017C271.305 2.63104 269.646 2.72192 267.912 2.81712C270.066 3.0681 272.167 3.31476 274.278 3.56142C274.257 3.62633 274.235 3.69124 274.214 3.75182C271.488 3.69124 268.763 3.62633 266.048 3.56575C266.048 3.50517 266.048 3.44891 266.048 3.38833C266.759 3.38833 267.47 3.38833 268.397 3.38833C267.287 3.07243 266.371 3.23687 265.445 3.28447C264.605 3.32774 263.754 3.34073 262.903 3.34505C262.709 3.34505 262.526 3.21956 262.31 3.20225C261.933 3.17196 261.545 3.18061 261.168 3.17628C260.791 3.17196 260.403 3.17628 259.93 3.17628C260.177 3.25418 260.382 3.31476 260.608 3.384C259.951 3.41429 259.337 3.46622 258.723 3.46189C258.475 3.46189 258.227 3.34505 258.034 3.20225C257.592 3.22822 257.15 3.25418 256.698 3.28014C256.687 3.23687 256.665 3.1936 256.655 3.15465C258.497 2.89501 260.5 3.11138 262.364 2.85173C262.202 2.80413 261.998 2.74788 261.804 2.6873C261.825 2.66133 261.847 2.63537 261.869 2.6094C262.526 2.70028 263.194 2.79115 263.905 2.88635C263.775 2.95559 263.657 3.01618 263.334 3.18927C264.282 3.16763 265.003 3.15032 265.768 3.13734C265.704 3.00319 265.66 2.92963 265.596 2.80414C266.296 2.86905 266.921 2.9253 267.556 2.98156C267.567 2.93828 267.589 2.89934 267.6 2.85606C265.337 2.38005 262.72 2.70894 260.371 2.3714C260.716 2.44929 261.05 2.53151 261.395 2.6094C261.384 2.63537 261.373 2.657 261.351 2.68297C259.93 2.52286 258.508 2.35842 257.086 2.19831C257.053 2.23293 257.032 2.26322 256.999 2.29783C257.678 2.42765 258.367 2.55748 259.165 2.70893C258.96 2.76086 258.798 2.83443 258.648 2.8301C256.579 2.79548 254.511 2.75653 252.432 2.70893C252.216 2.70461 252.022 2.61806 251.818 2.57046C251.775 2.60075 251.742 2.63537 251.699 2.66566C251.926 2.72624 252.13 2.79981 252.367 2.84308C252.637 2.89501 252.927 2.91664 253.488 2.99021C253.024 3.09839 252.83 3.14167 252.593 3.1936C252.852 3.27149 253.057 3.3364 253.315 3.41862C252.41 3.76913 251.322 3.59171 250.364 3.68259C248.855 3.82106 247.347 3.73451 245.839 3.75182C245.139 3.76048 244.363 3.95521 243.782 3.87299C242.09 3.62633 240.356 3.81674 238.729 3.68259C237.641 3.59171 236.51 3.68691 235.454 3.4792C235.67 3.4792 235.896 3.4792 236.112 3.4792C236.122 3.45756 236.122 3.43593 236.133 3.41429C235.799 3.39265 235.465 3.37102 235.131 3.34938C234.959 3.4316 234.776 3.57873 234.603 3.57873C234.162 3.5744 233.731 3.49218 233.289 3.46622C232.083 3.39266 230.876 3.3364 229.68 3.26716C229.454 3.25418 229.239 3.20658 229.012 3.17628C229.896 3.08541 230.768 3.0681 231.63 3.08974C232.18 3.10272 232.718 3.1633 233.246 3.21956C233.515 3.24985 233.752 3.31909 234 3.37102C233.989 3.41429 233.979 3.46189 233.968 3.50516C234.356 3.45324 234.743 3.40131 235.131 3.34505C235.487 3.26716 235.875 3.10272 236.187 3.12869C237.049 3.19792 237.814 3.20225 238.643 3.03348C239.139 2.93396 239.785 2.96857 240.367 2.94693C240.388 2.91232 240.399 2.8777 240.421 2.84308C239.774 2.75653 239.128 2.66999 238.481 2.58344C238.718 2.53584 238.988 2.48391 239.246 2.43198C239.236 2.39736 239.225 2.36274 239.214 2.32812C237.296 2.62238 235.379 2.57046 233.461 2.35842C233.451 2.39736 233.429 2.43198 233.418 2.47093C233.698 2.50987 233.989 2.54449 234.269 2.58344C234.269 2.60508 234.269 2.62671 234.269 2.64835C233.763 2.63537 233.246 2.62671 232.74 2.59642C232.643 2.59209 232.492 2.50555 232.492 2.45795C232.492 2.41035 232.632 2.33245 232.74 2.31947C232.998 2.29351 233.268 2.29783 233.537 2.26754C232.309 2.26754 231.092 2.26754 229.702 2.26754C230.478 2.419 231.156 2.55315 232.083 2.7349C229.497 2.91664 227.138 2.69162 224.542 2.70893C225.253 2.81279 225.705 2.8777 226.158 2.94261C226.147 2.99021 226.136 3.03348 226.125 3.08109C225.641 3.05945 225.145 3.05945 224.693 2.99886C224.466 2.96857 224.326 2.82577 224.143 2.7349C224.197 2.69162 224.24 2.65268 224.294 2.6094C222.721 2.53584 221.138 2.46227 219.565 2.38871C219.565 2.33245 219.576 2.2762 219.576 2.21561C221.202 2.13339 222.84 2.05117 224.466 1.97328C224.466 1.9603 224.466 1.94732 224.456 1.93434C222.711 1.93434 220.976 1.93434 219.209 1.93434C219.737 1.87375 220.276 1.81317 220.815 1.75259C220.804 1.72662 220.793 1.70499 220.772 1.67902C218.962 1.77422 217.152 1.87375 215.364 1.96896C216.484 2.14205 217.594 2.31514 218.876 2.50987C217.055 2.61806 215.461 2.70893 213.866 2.80413C213.866 2.83443 213.866 2.86472 213.866 2.89501C214.351 2.90799 214.836 2.92097 215.428 2.93395C214.976 3.21523 215.181 3.30178 215.859 3.34505C217.13 3.4316 218.391 3.57007 219.651 3.69124C219.673 3.64364 219.694 3.60036 219.716 3.55277C218.617 3.45324 217.518 3.35803 216.215 3.24119C216.603 3.18061 216.796 3.15032 217.249 3.07676C216.57 3.03348 216.129 3.00752 215.687 2.97723C215.698 2.95559 215.698 2.92963 215.708 2.90799C216.796 2.90799 217.884 2.90799 218.983 2.90799C218.983 2.93828 218.994 2.96425 218.994 2.99454C218.757 3.02483 218.531 3.05512 218.294 3.08109C218.972 3.16763 219.63 3.42294 220.287 3.05512C220.416 2.98155 221.052 3.05945 221.439 3.10272C222 3.1633 222.527 3.31476 223.088 3.32774C224.908 3.36236 226.739 3.34072 228.56 3.36236C228.894 3.36669 229.228 3.46189 229.562 3.51815C229.54 3.55709 229.519 3.59604 229.497 3.63499C228.441 3.63499 227.375 3.63499 226.319 3.63499C225.856 3.63499 225.404 3.63499 224.94 3.63499C224.51 3.63931 224.089 3.64797 223.659 3.64797C223.195 3.64797 222.829 3.59171 222.323 3.77346C221.913 3.92059 220.955 3.77779 220.244 3.77779C219.5 3.77779 218.746 3.78644 218.003 3.81673C217.217 3.84703 216.419 4.04176 215.73 3.6999C215.665 3.6696 215.493 3.65662 215.385 3.66961C214.168 3.79943 213.005 3.77346 211.873 3.47054C211.938 3.5268 212.003 3.58306 212.057 3.63498C211.712 3.6696 211.367 3.6999 211.055 3.73019C211.173 3.51382 211.249 3.37101 211.346 3.17628C212.024 3.24985 212.768 3.32342 213.5 3.40131C212.574 2.99021 211.378 2.99021 210.225 2.92962C209.493 2.89068 208.771 2.83875 208.038 2.82144C207.392 2.80413 206.746 2.84308 206.099 2.8301C205.388 2.81279 204.677 2.77384 203.977 2.71759C202.825 2.62671 201.672 2.5142 200.498 2.45362C201.736 2.84308 203.492 2.65268 204.861 3.1633C202.06 3.17196 199.496 3.15465 196.813 2.96424C197.115 2.76519 197.277 2.66133 197.46 2.53584C197.783 2.58777 198.138 2.64402 198.569 2.71326C198.203 2.4666 198.214 2.44929 196.48 2.28485C195.725 2.21129 194.928 2.21994 194.153 2.09877C195.133 2.05983 196.113 2.02088 197.083 1.97761C194.088 1.7396 191.039 2.1983 188.055 1.82182C189.844 1.62276 191.707 2.08579 193.474 1.6747C192.752 1.70499 192.02 1.7396 191.276 1.76989C191.438 1.65738 191.578 1.56218 191.718 1.46265L191.74 1.47131C189.801 1.50593 187.862 1.56218 185.922 1.57516C184.522 1.58382 183.122 1.54055 181.732 1.49727C180.978 1.47131 180.224 1.4064 179.491 1.33716C179.297 1.31985 179.147 1.22032 178.877 1.12079C178.963 1.26359 179.017 1.36312 179.082 1.47563C178.479 1.56651 177.628 1.59247 177.434 1.99059C176.507 1.9603 175.559 1.93866 174.622 1.89106C174.04 1.86077 173.329 2.01223 172.909 1.68335C172.866 1.64873 172.565 1.66171 172.381 1.67037C171.024 1.71797 169.678 1.76124 168.32 1.82182C168.126 1.83048 167.943 1.92135 167.76 2.04685C170.292 1.54487 172.565 2.23725 174.988 2.27187C173.556 2.41034 172.112 2.53584 170.626 2.41034C169.936 2.35409 169.236 2.31947 168.536 2.2762C168.116 2.25023 167.652 2.27187 167.286 2.1983C166.931 2.12474 166.672 1.95597 166.327 1.81317C166.769 1.74826 167.092 1.70066 167.415 1.65305C166.575 1.63142 165.735 1.60546 164.905 1.58382C165.789 1.4064 166.661 1.26792 167.405 1.66171C168.062 1.63574 168.719 1.58814 169.376 1.58382C170.83 1.57083 172.295 1.57949 173.879 1.57949C173.674 1.64007 173.577 1.66604 173.48 1.69633C173.491 1.72662 173.513 1.75259 173.523 1.78288C174.267 1.70931 174.999 1.61411 175.753 1.56218C176.41 1.51891 177.089 1.52756 177.768 1.51025C177.757 1.45833 177.735 1.4064 177.725 1.35447C175.01 1.35447 172.306 1.35447 169.591 1.35447C169.581 1.31985 169.57 1.28523 169.559 1.24628C170.001 1.19436 170.432 1.14676 170.873 1.09483C170.669 0.995298 170.485 0.904425 170.141 0.731333C170.173 0.91308 170.195 0.995298 170.216 1.11214C169.031 1.11214 167.846 1.11214 166.467 1.11214C166.672 1.07752 166.823 1.05155 167.049 1.01261C166.263 0.882787 165.595 0.774603 164.895 0.662092C165.53 0.614492 166.133 0.571218 166.747 0.523618C166.747 0.506307 166.737 0.493326 166.737 0.476015C165.929 0.476015 165.11 0.476015 164.216 0.476015C164.151 0.722677 164.097 0.969335 164.022 1.26792C162.859 1.21599 161.684 1.12079 160.521 1.12079C159.498 1.12079 158.485 1.23763 157.462 1.28956C157.063 1.30687 156.654 1.2809 156.244 1.27225L156.266 1.28523C155.275 0.917405 154.176 1.08185 153.314 1.31119C152.84 1.43669 152.614 1.43236 152.172 1.38043C151.817 1.33716 151.397 1.38043 151.02 1.3588C150.729 1.34149 150.449 1.28523 150.169 1.24628C149.587 1.24628 149.005 1.24628 148.423 1.24628C148.779 1.09915 149.134 0.999627 149.49 1.00828C149.716 1.01261 149.932 1.16839 150.147 1.25494C150.966 1.12079 151.774 0.965009 152.603 0.852498C152.948 0.804895 153.357 0.843839 153.896 0.843839C152.991 0.506307 152.086 0.597184 151.257 0.65344C150.093 0.735658 148.962 0.891442 147.788 1.01693C147.874 1.06021 148.014 1.14243 148.165 1.22465C148.143 1.25927 148.111 1.29821 148.089 1.33283C147.562 1.30687 147.034 1.2809 146.409 1.25061C145.698 1.44967 144.696 1.31552 143.77 1.31552C142.811 1.31552 141.852 1.25061 140.861 1.21599C140.829 1.15541 140.786 1.06886 140.764 1.03425C141.227 0.943368 141.691 0.852498 142.208 0.748639C141.701 0.458706 140.656 0.783257 140.603 0.363503C141.669 0.272629 142.628 0.190411 143.576 0.108193C143.576 0.0735709 143.576 0.0346267 143.576 8.28227e-06C142.552 8.23672e-06 141.529 8.19116e-06 140.376 8.13986e-06C140.086 0.268303 135.906 0.900093 134.096 0.843838C134.236 0.92606 134.333 0.982315 134.462 1.04723C133.439 1.04723 132.437 1.04723 131.435 1.04723C131.284 1.04723 131.09 1.00395 130.994 1.02991C129.862 1.3588 128.807 0.904423 127.762 1.06021C127.826 0.861149 127.87 0.731331 127.913 0.605835L127.945 0.618816C126.997 0.856823 125.607 0.96933 125.586 0.796238C125.78 0.778927 125.974 0.761623 126.167 0.748638C126.049 0.679401 125.941 0.61449 125.833 0.549579C123.722 0.869804 120.393 0.973659 118.918 0.835186C119.079 0.939041 119.165 1.05155 119.284 1.06021C119.93 1.0905 120.587 1.11214 121.244 1.10348C123.054 1.07752 124.864 1.02559 126.685 1.00828C126.9 1.00395 127.115 1.13377 127.331 1.20301C127.115 1.27225 126.932 1.38476 126.695 1.40639C125.058 1.57516 123.474 1.31985 121.858 1.27225C121.309 1.25494 120.749 1.37611 120.178 1.39774C119.769 1.41072 119.338 1.36312 118.918 1.34581C118.584 1.33283 118.25 1.31985 117.916 1.30687C117.894 1.34148 117.883 1.37611 117.862 1.41072C118.163 1.454 118.476 1.49294 119.047 1.57083C117.754 1.85211 116.58 1.62276 115.513 1.74393C115.557 1.6444 115.578 1.58814 115.6 1.52756C116.106 1.50592 116.688 1.47996 117.259 1.45832C117.259 1.42371 117.248 1.39341 117.248 1.35879C116.548 1.35879 115.858 1.35879 115.158 1.35879C115.147 1.33283 115.147 1.30687 115.136 1.28523C115.417 1.25927 115.707 1.22897 116.16 1.1857C114.695 0.969333 113.316 1.58382 112.002 1.15108C111.086 1.19002 110.084 1.23763 109.071 1.26359C108.931 1.26792 108.77 1.1381 108.511 1.02126C107.585 1.02126 106.465 1.02126 105.14 1.02126C105.495 0.947696 105.689 0.913073 105.872 0.874129C105.851 0.835181 105.829 0.796237 105.807 0.757293C103.793 1.07752 101.638 0.874129 99.6025 1.22897C100.626 1.22897 101.638 1.22897 102.662 1.22897C98.2128 1.45832 93.7853 1.83047 89.2717 1.65738C89.444 1.6444 89.6056 1.63574 89.778 1.62276C90.4351 1.56651 91.103 1.57949 91.7709 1.52756C93.5268 1.38476 95.3581 1.42803 97.1571 1.37178C97.7927 1.35446 98.4175 1.27225 99.0531 1.22032C99.0423 1.1857 99.0208 1.15541 99.01 1.12079C97.6742 1.15541 96.3384 1.20301 95.0026 1.22032C92.5573 1.25061 90.1119 1.26792 87.6665 1.26792C86.4493 1.26792 85.2212 1.16839 84.0147 1.20301C83.0236 1.2333 82.0649 1.41072 81.0846 1.50592C80.5459 1.55785 79.975 1.61411 79.4256 1.5968C77.6805 1.55353 75.9461 1.47563 74.2009 1.41505C74.1902 1.45399 74.1686 1.49294 74.1579 1.53189C74.481 1.55785 74.7934 1.57949 75.1166 1.60545C75.1274 1.63574 75.1274 1.66603 75.1381 1.69632C73.7916 1.76556 72.445 1.83913 71.0985 1.90836C71.0877 1.89105 71.0769 1.86942 71.0661 1.85211C71.454 1.80018 71.8418 1.74392 72.2296 1.692C70.6568 1.81749 69.224 1.39774 67.6405 1.51458C66.0138 1.63574 64.3333 1.64872 62.6744 1.70498C62.6528 1.74825 62.6205 1.7872 62.599 1.83048C62.9329 1.92135 63.2668 2.01222 63.7947 2.15935C63.1268 2.17233 62.599 2.18532 62.0603 2.1983C62.0496 2.17233 62.0388 2.14637 62.028 2.12041C62.1465 2.09011 62.265 2.0555 62.3943 2.0252C62.3512 2.00789 62.3189 1.9776 62.2758 1.97328C61.6725 1.91702 61.0585 1.86942 60.4553 1.81749C60.3044 1.80451 60.089 1.76556 60.0243 1.79153C59.0871 2.14204 58.193 1.73527 57.2558 1.76989C56.3078 1.8045 55.3383 1.71796 54.3795 1.68767C54.3688 1.64007 54.3472 1.59247 54.3365 1.54919C55.1336 1.47563 55.9308 1.34581 56.7387 1.33283C59.6689 1.28523 62.6097 1.28523 65.5399 1.24628C66.8972 1.22897 68.2437 1.14675 69.6011 1.11646C70.0104 1.10781 70.4198 1.18137 70.8399 1.18137C72.1434 1.18137 73.4469 1.16839 74.7503 1.1554C74.815 1.1554 74.8796 1.11213 74.9335 1.05155C73.9532 1.15541 73.0914 0.861146 72.0249 1.00828C71.1846 1.12079 70.172 0.956346 69.224 0.95202C67.8667 0.939038 66.4986 0.969331 65.1413 0.960675C64.6565 0.956349 64.161 0.843839 63.687 0.852494C62.9222 0.865476 62.1681 0.95202 61.414 0.990968C58.8717 1.11213 56.3294 1.2809 53.7763 1.31985C51.4063 1.35879 48.9717 1.37177 46.6664 1.17271C44.9321 1.02126 43.5101 1.19868 42.002 1.41937C41.7757 1.45399 41.6249 1.58814 41.3771 1.70498C40.1814 1.65738 38.8241 1.60112 37.5314 1.54919C38.5117 0.995292 40.0845 1.39774 41.3018 1.1078C39.7936 1.1078 38.2854 1.1078 36.5403 1.1078C36.9927 1.17704 37.2621 1.22031 37.7684 1.29821C37.2621 1.36745 36.9712 1.43668 36.6804 1.44101C34.612 1.47563 32.5545 1.47996 30.4862 1.53189C27.039 1.6141 23.5918 1.71796 20.1446 1.82614C17.3976 1.91702 14.6506 2.03818 11.8928 2.12906C11.4404 2.14204 10.9772 2.06415 10.5139 2.0252C10.5139 1.99058 10.5247 1.95164 10.5247 1.91702C12.6038 1.72661 14.6614 1.49726 16.762 1.36312C18.9811 1.22032 21.2326 1.16839 23.4733 1.07751C23.4625 1.03424 23.4625 0.990962 23.4517 0.952018C21.8789 1.00827 20.3169 1.05155 18.7441 1.12078C17.1929 1.19002 15.6309 1.26792 14.0797 1.35879C12.4853 1.45399 10.9018 1.5665 9.30744 1.67469C7.72388 1.77854 6.14032 1.8824 4.43829 1.99924C4.41675 1.84778 4.43826 1.71796 4.36286 1.60112C4.28745 1.48428 4.1474 1.31985 3.94272 1.28955C3.71649 1.25493 3.19943 1.31552 3.1348 1.38908C2.53153 2.0252 1.1311 2.35841 -2.91834e-05 2.91663C0.538606 2.95558 0.883363 2.96423 1.20654 3.00751C1.56201 3.05511 1.90674 3.13733 2.24069 3.21089C2.40228 3.24551 2.5423 3.29744 2.69312 3.34504C2.74698 3.26715 2.75778 3.1806 2.85474 3.12002C3.10248 2.95991 3.32868 2.78249 3.6734 2.6743C3.83499 2.62238 4.24436 2.71758 4.59985 2.74787C3.9212 3.02049 3.39334 3.23686 2.67157 3.52679C3.31793 3.58305 3.67343 3.59603 3.99661 3.64363C4.37363 3.70421 4.72913 3.79509 5.0954 3.86865C5.25699 3.90327 5.42935 3.9552 5.58017 3.95087C5.66635 3.94654 5.8064 3.82971 5.78485 3.77345C5.64481 3.35802 6.37732 3.36235 7.08832 3.17627C6.89441 3.37533 6.78665 3.46188 6.73279 3.55708C6.44193 4.08502 6.48505 4.10666 7.7562 4.12829C8.05783 4.13262 8.34866 4.16291 8.6503 4.18455C8.91962 4.20186 9.17816 4.2235 9.44748 4.24081C9.21048 4.7298 9.2428 4.73845 10.417 4.77307C11.0418 4.79038 11.6559 4.84663 12.2699 4.95482C11.9467 4.95482 11.602 4.97645 11.2896 4.95049C10.2446 4.86827 9.41516 4.80336 8.52103 5.27071C7.96088 5.56497 6.51737 5.54766 5.4509 5.65152C5.13849 5.68181 4.79376 5.65585 4.22281 5.65585C4.96613 5.96309 5.56937 6.2184 6.06491 6.42179C5.82791 6.91078 5.67709 7.32187 5.397 7.71566C5.26773 7.89741 4.86917 8.04022 4.58908 8.20033C4.42749 8.2912 4.1474 8.37775 4.11508 8.47295C3.92117 9.21725 4.06125 9.94858 4.63217 10.6583C4.66449 10.7015 4.80454 10.7318 4.98764 10.8011C4.58908 10.9482 4.22281 11.0867 3.84577 11.2295C4.40595 11.5886 3.71649 11.8353 3.16712 12.0949C4.57831 12.4411 5.47241 12.8695 5.16 13.6225C5.10617 13.7393 5.67709 13.9038 5.92487 14.0249C5.31082 14.1721 4.71835 14.3105 3.94272 14.4966C4.42749 14.5832 4.66449 14.6264 4.95535 14.6784C4.69681 14.7736 4.44904 14.8601 4.11508 14.9813C4.52445 15.0938 4.8584 15.189 5.30008 15.3145C5.03076 15.4486 4.78299 15.5698 4.56754 15.678C4.76144 15.8684 5.28931 16.167 5.13849 16.2665C4.77222 16.5002 4.08279 16.643 3.42566 16.8507C3.6088 17.3007 4.92304 17.2358 5.70941 17.5258C5.23544 17.6556 4.79376 17.7724 4.36285 17.8893C4.45981 17.8979 4.55676 17.9066 4.65372 17.9152C4.72913 18.0753 4.9661 18.2614 4.8476 18.3869C4.5029 18.7461 4.0397 19.0879 3.5657 19.4211C3.32871 19.5899 3.26407 19.6808 3.61957 19.8582C4.16895 20.1308 4.76144 20.4467 4.01813 20.8492C3.86731 20.9314 3.77039 21.0958 3.85657 21.1867C4.39517 21.7579 3.30713 22.169 3.16711 22.684C3.3179 22.7619 3.51181 22.8571 3.77036 22.9869C3.35022 23.0128 3.05939 23.0302 3.00552 23.0302C3.22098 23.1989 3.52261 23.3893 3.69498 23.597C3.94275 23.887 3.86734 24.2288 4.69681 24.4019C4.89072 24.4409 4.98767 24.6616 4.95535 24.7957C4.90149 25.0943 5.08463 25.302 5.78485 25.3929C5.97876 25.4189 6.16187 25.4708 6.35577 25.5141C6.31268 25.5573 6.25882 25.6049 6.21573 25.6482C5.66635 25.7347 5.11694 25.8256 4.56754 25.9122C4.56754 25.9381 4.55676 25.9598 4.55676 25.9857C5.07385 25.9987 5.61246 25.9857 6.108 26.0333C6.44196 26.0636 6.80823 26.1588 7.02368 26.2713C7.32529 26.4358 7.49765 26.6435 7.73465 26.8296C8.24097 27.2234 8.11169 27.3705 7.12061 27.5436C6.88364 27.5869 6.65738 27.6388 6.43115 27.6907C6.4527 27.7253 6.4635 27.7556 6.48505 27.7902C7.20682 27.7902 7.91779 27.7902 8.67188 27.7902C9.0058 28.0888 9.41516 28.4047 9.70602 28.7423C9.91068 28.9889 9.79221 29.2183 9.44748 29.4866C8.79037 29.9972 9.29663 30.2871 10.8048 30.352C10.5139 30.4559 10.2554 30.5468 10.0076 30.6333C10.0399 30.6636 10.0723 30.6939 10.1046 30.7199C10.6001 30.6593 11.0957 30.5987 11.6881 30.5251C11.9359 30.7025 12.0221 31.0271 12.8731 31.0357C12.9809 31.0357 13.067 31.2132 13.1963 31.2997C13.3471 31.3992 13.4872 31.542 13.7026 31.581C14.4674 31.7065 14.6183 31.9791 14.7152 32.2734L14.6937 32.2647C15.4478 32.07 15.4478 32.07 16.9451 32.308C16.3742 32.6325 16.288 32.6412 15.6524 32.4118C15.7063 32.5027 15.7171 32.6109 15.8356 32.6931C15.9218 32.758 16.2557 32.8446 16.2773 32.8359C17.0636 32.4854 17.9147 32.7667 18.7441 32.771C19.1858 32.7753 19.6275 32.7321 20.0799 32.7148C20.1661 32.758 20.2523 32.8013 20.3385 32.8489C19.8214 32.9744 19.3043 33.0956 18.798 33.2211C18.9057 33.286 19.0134 33.3509 19.1212 33.4201C20.2307 33.2946 21.3295 33.1345 22.4606 33.0523C23.4302 32.9787 24.4428 32.9831 25.4339 32.9744C26.7804 32.9614 28.1378 32.9831 29.4843 32.9701C30.7124 32.9571 31.9404 32.9225 33.1685 32.8792C34.0411 32.8489 34.9136 32.7667 35.7862 32.7624C36.5187 32.758 37.2513 32.8403 37.9838 32.8835L37.9515 32.8705C38.9102 32.8229 39.8798 32.771 40.8385 32.7234C40.9893 32.7148 41.2263 32.7061 41.2802 32.7407C42.0881 33.2254 43.2946 32.9657 44.4904 33.061C44.0918 33.26 43.7579 33.4288 43.424 33.5932C43.4455 33.6192 43.467 33.6495 43.4886 33.6754C44.5874 33.5456 45.6754 33.3812 46.7957 33.299C47.7114 33.234 48.6701 33.26 49.6073 33.2557C51.5248 33.2514 53.4423 33.273 55.3491 33.2427C57.6867 33.2038 60.0135 33.1259 62.3512 33.0653C62.6205 33.0566 62.8898 33.0783 63.2668 33.0869C63.0729 33.1864 62.9545 33.247 62.6636 33.3985C64.064 33.3509 65.2598 33.5759 66.4555 33.2254C66.8864 33.0999 67.5328 33.1259 68.093 33.0263C69.1594 32.8403 70.3982 32.8403 71.5724 32.7667C71.6048 32.8013 71.6479 32.8359 71.6802 32.8662C71.3354 33.0307 71.0015 33.1951 70.6568 33.3639C70.6891 33.3942 70.7322 33.4244 70.7645 33.4547C71.9064 33.3119 73.0375 33.1302 74.2117 33.0393C75.0412 32.9744 75.9138 33.0263 76.7648 33.022C78.7361 33.0177 80.7183 33.0436 82.6897 33.0047C84.2625 32.9744 85.8245 32.8316 87.3972 32.81C88.3021 32.797 89.2178 32.9355 90.1335 32.9744C91.2538 33.022 92.3418 33.1302 93.4837 32.8576C94.13 32.7061 95.0672 32.7797 95.8752 32.7624C96.263 32.7537 96.6508 32.7797 97.1248 32.7883C97.0171 32.6931 96.9632 32.6325 96.8878 32.572C97.3726 32.572 97.825 32.572 98.4067 32.572C98.1482 32.7364 97.9543 32.8662 97.588 33.0956C98.9131 32.9355 99.9903 32.758 101.111 32.6801C102.026 32.6152 102.996 32.6239 103.933 32.6542C106.723 32.7451 109.502 32.8705 112.292 32.6499C112.853 32.6066 113.445 32.6542 114.027 32.6672C114.749 32.6801 115.481 32.6931 116.203 32.7148C116.612 32.7277 117.226 32.572 117.237 32.9441C117.237 32.9701 117.442 33.0134 117.549 33.0134C118.519 33.0134 119.553 33.0956 120.426 32.9744C121.902 32.7624 123.334 32.9095 124.778 32.9182C125.284 32.9225 125.801 32.9355 126.307 32.9484C128.344 32.9874 130.38 33.0307 132.415 33.0653C133.126 33.0783 133.848 33.0653 134.355 33.0653C133.697 33.286 132.922 33.5499 131.974 33.8702C134.031 34.0649 135.712 33.8529 137.565 33.6451C136.488 33.498 135.615 33.3769 134.678 33.247C135.604 32.9268 136.638 32.9311 137.662 32.9355C137.78 32.9355 137.963 32.9441 137.996 32.9787C138.62 33.5197 139.741 33.3292 140.732 33.3379C140.818 33.3379 140.915 33.3466 141.174 33.3639C140.753 33.5673 140.387 33.7447 140.032 33.9178C140.053 33.9437 140.075 33.974 140.096 34C141.227 33.8745 142.337 33.7187 143.49 33.6322C144.405 33.5629 145.353 33.5716 146.29 33.5673C148.143 33.5586 149.985 33.5975 151.838 33.5586C153.627 33.524 155.404 33.3898 157.203 33.3509C159.12 33.3076 161.038 33.3206 162.956 33.3119C164.097 33.3076 165.239 33.3119 166.543 33.3119C166.543 33.1215 166.543 32.9268 166.543 32.6931C169.538 32.6455 172.629 32.6152 175.721 32.546C177.725 32.5027 179.718 32.3729 181.71 32.3383C183.165 32.3123 184.63 32.3772 186.095 32.4075C186.795 32.4205 187.495 32.4551 188.195 32.4768C191.276 32.572 194.357 32.6715 197.449 32.758C199.076 32.8013 200.702 32.8273 202.34 32.8532C204.904 32.8922 207.467 32.9138 210.031 32.9658C213.058 33.0263 216.096 33.1172 219.123 33.1821C221.956 33.2427 224.79 33.2427 227.612 33.3466C230.316 33.4461 232.955 33.273 235.627 33.2038C236.866 33.1735 238.104 33.1994 239.343 33.1865C241.724 33.1648 244.105 33.1562 246.485 33.0956C248.424 33.048 250.353 32.9268 252.292 32.8619C254.166 32.797 256.041 32.7797 257.904 32.7061C259.886 32.6282 261.869 32.4984 263.851 32.4162C264.68 32.3816 265.531 32.4335 266.361 32.4248C268.203 32.4119 270.056 32.4119 271.887 32.3556C273.751 32.295 275.614 32.1695 277.467 32.0787C279.298 31.9878 281.141 31.8666 282.972 31.8277C285.256 31.7757 287.55 31.8017 289.845 31.7844C290.653 31.7757 291.45 31.7281 292.258 31.7065C294.046 31.6589 295.845 31.62 297.633 31.5724C298.657 31.5421 299.68 31.4901 300.714 31.4598C301.253 31.4469 301.802 31.4728 302.341 31.4685C303.989 31.4555 305.648 31.4339 307.296 31.4209C308.039 31.4166 308.794 31.4122 309.537 31.4296C310.571 31.4555 311.53 31.4988 312.596 31.2997C313.49 31.1353 314.665 31.2738 315.72 31.2651C316.183 31.2608 316.636 31.2132 317.099 31.1872C317.099 31.1526 317.099 31.118 317.099 31.0834C315.914 31.0271 314.729 30.9665 313.544 30.9103C313.555 30.88 313.566 30.8497 313.566 30.8237C314.988 30.8237 316.399 30.8237 317.993 30.8237C317.799 30.7242 317.713 30.6809 317.584 30.6117C319.738 30.3088 321.914 30.6117 324.134 30.5295C324.004 30.4343 323.918 30.365 323.778 30.2655C325.556 30.2655 327.279 30.2655 329.014 30.2655C329.014 30.2482 329.014 30.2265 329.014 30.2092C328.443 30.153 327.861 30.0924 327.29 30.0361C327.301 29.9842 327.311 29.9366 327.322 29.8847C329.94 29.8414 332.558 29.7981 335.186 29.7592C335.197 29.7419 335.208 29.7289 335.218 29.7116C333.904 29.6034 332.579 29.4952 331.265 29.387C331.276 29.3308 331.287 29.2789 331.308 29.2226C331.61 29.2139 331.965 29.1577 332.202 29.2096C333.01 29.3827 333.775 29.3351 334.637 29.2875C336.134 29.2053 337.653 29.2139 339.237 29.1837C339.075 28.7639 339.474 28.7293 340.346 28.7682C342.576 28.8634 344.828 28.8764 347.068 28.9197C347.079 28.8764 347.101 28.8331 347.111 28.7899C346.885 28.7682 346.67 28.7379 346.443 28.725C346.185 28.712 345.916 28.712 345.474 28.7033C345.829 28.5865 346.056 28.5172 346.282 28.4437C346.056 28.4004 345.786 28.3528 345.291 28.2576C345.7 28.2273 345.926 28.21 346.142 28.1927L346.12 28.2014C345.474 28.1711 344.828 28.1235 344.181 28.1148C342.856 28.0932 341.531 28.0888 340.206 28.0845C338.913 28.0845 337.621 28.1061 336.328 28.0975C335.811 28.0932 335.294 28.0283 334.777 27.9893C334.788 27.9547 334.798 27.9157 334.798 27.8811C336.651 27.8552 338.515 27.8422 340.368 27.7903C342.156 27.7427 344.041 28.1537 345.991 27.5479C345.431 27.483 345.086 27.4094 344.731 27.4051C342.081 27.3662 339.431 27.3186 336.78 27.3272C335.057 27.3316 333.344 27.4224 331.62 27.4744C331.502 27.4787 331.383 27.4657 331.254 27.3965C331.954 27.3705 332.665 27.3489 333.366 27.3229C333.376 27.3013 333.387 27.2753 333.398 27.2537C332.978 27.2234 332.547 27.1585 332.127 27.1671C330.64 27.1931 329.089 27.3792 327.688 27.245C326.04 27.0849 324.554 27.4484 322.992 27.3186C322.733 27.2969 322.507 27.219 322.141 27.1411C323.099 27.1022 323.832 27.0762 324.575 27.0459C324.564 27.007 324.564 26.9681 324.554 26.9291C323.606 26.9291 322.658 26.9291 321.71 26.9291C321.71 26.9075 321.71 26.8858 321.71 26.8642C323.498 26.8253 325.286 26.782 327.074 26.743C327.074 26.7127 327.074 26.6781 327.074 26.6478C323.347 26.6478 319.631 26.6478 315.903 26.6478C315.893 26.6348 315.893 26.6219 315.882 26.6089C316.851 26.5267 317.821 26.4185 318.801 26.3709C321.214 26.2497 323.616 26.1242 326.04 26.0636C328.399 26.0031 330.759 26.0377 333.118 26.0074C334.389 25.9901 335.66 25.9252 336.931 25.8776C337.621 25.8516 338.299 25.8127 338.989 25.7175C337.524 25.7175 336.059 25.7175 334.594 25.7175C334.583 25.7045 334.583 25.6915 334.583 25.6828C334.863 25.6525 335.143 25.6179 335.423 25.5876C334.507 25.4448 333.43 25.7824 332.461 25.2977C335.811 25.0986 339.021 24.9082 342.242 24.7222C342.264 24.7481 342.274 24.7698 342.296 24.7957C342.145 24.7654 341.994 24.7395 341.811 24.7049C341.919 24.6659 341.962 24.6356 342.005 24.6356C342.274 24.6313 342.544 24.6313 342.824 24.6313C342.996 24.9255 344.709 24.9385 347.316 24.627C346.627 24.6529 345.937 24.6746 345.248 24.7005C345.248 24.6746 345.237 24.6486 345.237 24.6183C349.632 24.3976 354.016 24.1726 358.412 23.9519C358.412 23.9129 358.401 23.8697 358.401 23.8307C358.229 23.8221 358.045 23.8134 357.873 23.8134C356.99 23.8134 355.912 23.6793 355.266 23.8524C354.544 24.0471 353.833 23.9822 353.155 24.0514C351.97 24.1769 350.72 24.1726 349.492 24.2159C348.275 24.2591 347.057 24.3067 345.84 24.3154C343.858 24.3284 341.876 24.3024 339.894 24.3111C338.224 24.3154 336.565 24.3414 334.895 24.3587C334.648 24.363 334.411 24.3716 334.12 24.3803C334.971 24.1423 334.971 24.1683 336.026 24.2072C336.468 24.2245 336.921 24.0904 337.384 24.0731C338.267 24.0341 339.15 24.0341 340.034 23.9995C340.389 23.9865 340.766 24.0211 341.036 23.7961C341.186 23.6663 341.887 23.6576 342.339 23.5971C342.361 23.6317 342.393 23.6706 342.414 23.7052C342.081 23.7701 341.747 23.8307 341.413 23.8956C341.423 23.9216 341.423 23.9432 341.434 23.9692C342.285 23.9692 343.125 23.9779 343.976 23.9692C345.226 23.9562 346.476 23.9389 347.725 23.9129C348.479 23.9 349.341 23.9562 349.977 23.8221C351.474 23.5148 352.961 23.7831 354.437 23.7269C356.128 23.6663 357.83 23.623 359.532 23.5841C360.502 23.5624 361.46 23.5581 362.43 23.5451C363.022 23.5365 363.615 23.5451 364.196 23.5192C364.67 23.4975 365.134 23.5235 365.586 23.3158C365.909 23.1643 366.739 23.2206 367.353 23.186C368.172 23.1427 368.99 23.1037 369.798 22.9826C361.816 23.4456 353.79 23.411 345.776 23.424C345.765 23.385 345.765 23.3417 345.754 23.3028C347.036 23.2465 348.329 23.1903 349.611 23.134C349.632 23.1124 349.654 23.0908 349.675 23.0648C348.996 22.9393 348.329 22.8181 347.65 22.6926C347.661 22.6623 347.661 22.6364 347.671 22.6061C348.975 22.6061 350.278 22.6061 351.787 22.6061C351.194 22.4676 350.774 22.3681 350.343 22.2686C348.63 22.4763 346.96 22.5369 345.452 22.0608C345.463 22.0132 345.485 21.9656 345.495 21.918C347.111 22.0349 348.716 22.156 350.332 22.2729C350.472 22.2729 350.623 22.2729 350.989 22.2729C350.677 22.169 350.526 22.1171 350.375 22.0695C350.397 22.0392 350.418 22.0046 350.44 21.9743C351.173 22.0522 351.905 22.1344 352.638 22.2123C352.648 22.1647 352.67 22.1128 352.681 22.0652C351.345 21.9959 349.998 21.931 348.598 21.8575C348.856 21.8142 349.093 21.7796 349.33 21.7406C349.233 21.6844 349.158 21.6411 349.169 21.6454C350.483 21.5545 351.787 21.4593 353.09 21.3685C353.101 21.3901 353.112 21.4117 353.122 21.4377C352.853 21.4723 352.584 21.5113 352.325 21.5459C354.889 21.6584 357.421 21.7493 360.103 21.468C359.08 21.3641 358.293 21.2819 357.496 21.1997C357.528 21.1434 357.561 21.0872 357.582 21.0309C358.552 21.0006 359.5 21.0136 360.308 21.3122C360.771 21.481 360.975 21.4767 361.654 21.3036C361.794 21.2646 362.053 21.3079 362.257 21.3122C362.548 21.3209 362.839 21.3338 363.13 21.3425C363.141 21.2949 363.162 21.2473 363.173 21.1954C361.654 21.0785 360.124 20.966 358.606 20.8492C358.606 20.8232 358.616 20.7973 358.616 20.7713C359.435 20.8016 360.265 20.8881 361.062 20.8449C361.891 20.8016 362.688 20.6371 363.464 20.4381C361.062 20.3948 358.692 20.741 356.322 20.3818C358.498 20.278 360.685 20.1698 362.753 20.0703C363.453 19.9967 364.067 19.9361 364.681 19.8712C364.681 19.8539 364.681 19.8366 364.681 19.8193C362.376 19.8712 360.081 19.9231 357.776 19.9707C357.765 19.9058 357.755 19.8409 357.744 19.7717C363.561 19.5726 369.389 19.3692 375.228 19.1658C374.29 18.9711 373.353 18.9322 372.276 19.0144C371.425 19.0793 370.498 18.9884 369.464 18.9625C369.744 18.9019 369.906 18.8673 370.132 18.8197C369.863 18.7634 369.637 18.7201 369.335 18.6595C370.531 18.5946 371.64 18.5341 372.761 18.4778C372.761 18.4562 372.761 18.4345 372.75 18.4129C372.028 18.4129 371.306 18.4129 370.585 18.4129C370.585 18.3696 370.585 18.3263 370.585 18.2874C372.19 18.2874 373.806 18.2917 375.411 18.2874C376.305 18.2831 377.21 18.2484 378.104 18.2571C378.664 18.2614 379.235 18.361 379.795 18.3523C381.012 18.3307 382.219 18.2614 383.436 18.2138L383.415 18.2225C382.941 18.1835 382.477 18.1489 382.003 18.11C381.842 18.097 381.669 18.084 381.529 17.9802C383.016 17.9369 384.503 17.8893 385.989 17.846C385.989 17.8027 386 17.7595 386 17.7162C381.842 17.4565 377.641 17.4349 373.418 17.4522C373.73 17.4782 374.043 17.5085 374.366 17.5344C374.376 17.5561 374.376 17.5777 374.387 17.595C374.15 17.6037 373.924 17.6123 373.687 17.6167C372.103 17.6426 370.52 17.6599 368.936 17.6989C368.322 17.7162 367.719 17.7984 367.105 17.8114C366.459 17.8287 366.297 17.6599 366.545 17.3311C365.737 17.4219 365.026 17.4998 364.477 17.5604C364.94 17.6037 365.543 17.6556 366.146 17.7119C366.136 17.7551 366.125 17.7984 366.114 17.8417C363.065 17.8979 360.017 17.9542 356.979 18.0104C356.968 17.9845 356.968 17.9585 356.957 17.9326C358.476 17.8676 359.995 17.7984 361.514 17.7335C361.514 17.6902 361.514 17.6469 361.514 17.6037C359.123 17.5734 356.731 17.5431 354.35 17.5128C354.361 17.4955 354.361 17.4739 354.372 17.4565C355.966 17.37 357.561 17.2575 359.155 17.2012C359.974 17.1709 360.814 17.2575 361.633 17.2358C363.119 17.1926 364.606 17.0801 366.103 17.0498C367.633 17.0195 369.173 17.0541 370.714 17.0628C371.242 17.0628 371.77 17.0628 372.588 17.0628C372.2 16.9502 372.06 16.9113 371.91 16.868C371.91 16.8377 371.91 16.8074 371.91 16.7772C373.924 16.7772 375.928 16.7772 377.942 16.7772C377.942 16.7209 377.942 16.6646 377.953 16.6127C375.378 16.5218 372.804 16.431 370.046 16.3314C370.778 16.2492 371.306 16.1583 371.856 16.1324C372.502 16.1021 373.116 16.1237 373.806 16.2103C374.71 16.3228 375.798 16.1886 376.8 16.1367C377.447 16.1064 378.093 16.0026 378.739 15.9939C379.881 15.9809 381.023 16.0026 382.165 16.0328C382.811 16.0502 383.447 16.1021 384.115 16.0588C383.932 16.0328 383.738 16.0026 383.555 15.9766C383.555 15.9506 383.555 15.929 383.544 15.903C384.223 15.8598 384.912 15.8165 385.591 15.7732C385.601 15.7386 385.601 15.704 385.612 15.6693C383.684 15.5828 381.766 15.4746 379.838 15.4227C378.89 15.3967 377.921 15.5179 376.962 15.5222C375.098 15.5265 373.235 15.4919 371.371 15.4789C371.134 15.4789 370.897 15.5439 370.671 15.5395C370.38 15.5395 370.1 15.5006 369.96 15.4876C369.195 15.5395 368.484 15.6564 367.848 15.6088C366.513 15.5092 365.328 15.7732 364.056 15.8122C363.636 15.8251 363.119 15.9117 362.807 15.8381C361.266 15.4746 359.575 15.5958 357.948 15.5222C356.677 15.466 355.374 15.5049 354.092 15.4876C353.424 15.4789 352.767 15.4357 352.099 15.4097C351.69 15.44 351.291 15.4919 350.882 15.4963C350.074 15.5049 349.266 15.4789 348.469 15.4876C346.066 15.5092 343.675 15.5482 341.273 15.5525C340.346 15.5525 339.387 15.5309 338.547 15.1717C339.29 15.189 339.915 15.1977 340.659 15.215C340.454 15.0981 340.368 15.0419 340.098 14.8818C341.8 15.0332 343.233 15.1587 344.784 15.2972C344.763 15.3058 344.914 15.2063 345.086 15.202C345.808 15.1717 346.54 15.1371 347.262 15.1674C348.91 15.2063 350.526 15.3102 352.153 15.3967ZM205.13 3.69124C205.324 3.79942 205.507 3.91193 205.765 4.05906C204.871 4.00713 204.085 3.95954 203.191 3.90761C203.945 3.82539 204.537 3.76048 205.13 3.69124C205.238 3.68258 205.335 3.6696 205.636 3.63498C204.957 3.57007 204.473 3.52247 203.988 3.47487C204.516 3.41861 205.065 3.45756 205.518 3.37967C206.315 3.23687 206.767 3.47487 207.338 3.60469C207.554 3.65662 207.791 3.69989 208.006 3.74749C207.834 3.63931 207.672 3.53113 207.489 3.41862C207.554 3.39265 207.629 3.37102 207.694 3.34505C208.459 3.06378 208.976 3.11137 209.611 3.45756C209.837 3.58306 210.247 3.64797 210.548 3.73884C209.74 3.73884 208.868 3.73884 207.985 3.73884C207.834 3.99415 207.144 4.1283 206.756 3.91626C206.25 3.63931 205.658 3.75615 205.13 3.69124ZM333.419 12.4498C332.762 12.8306 332.03 12.5104 331.297 12.4671C331.362 12.5493 331.394 12.6013 331.437 12.6532C331.297 12.6489 331.146 12.6532 331.028 12.6315C330.726 12.5753 330.435 12.4585 330.134 12.4585C328.97 12.4498 327.807 12.4801 326.644 12.4844C326.482 12.4844 326.32 12.4368 326.159 12.4109C327.128 12.3286 328.13 12.3979 328.97 12.2724C330.188 12.0906 331.287 12.32 332.45 12.3027C332.805 12.2983 333.172 12.3892 333.527 12.4368C334.454 12.4585 335.38 12.4801 336.306 12.4974C336.306 12.532 336.296 12.5666 336.296 12.6013C335.477 12.6013 334.669 12.6099 333.85 12.5926C333.71 12.5883 333.56 12.4974 333.419 12.4498ZM135.777 1.87807C135.432 1.91269 135.076 1.93866 134.753 1.99492C134.602 2.02088 134.516 2.11175 134.279 2.22859C133.385 2.18532 132.286 2.12906 131.177 2.07714C131.187 2.05117 131.187 2.02088 131.198 1.99492C131.952 1.99492 132.706 1.99492 133.697 1.99492C133.331 1.93866 133.191 1.91702 132.997 1.8824C133.977 1.63142 134.872 1.80451 135.777 1.87807C136.294 1.79153 136.8 1.70065 137.435 1.58814C134.548 1.58814 131.834 1.58814 129.119 1.58814C129.119 1.5492 129.119 1.51025 129.119 1.46698C132.609 1.46698 136.1 1.46698 139.59 1.46698C139.59 1.49294 139.601 1.51891 139.601 1.54487C138.944 1.56651 138.276 1.59247 137.619 1.61411C137.619 1.6444 137.619 1.67469 137.619 1.70931C137.974 1.73527 138.33 1.76124 138.696 1.7872C138.685 1.81749 138.685 1.84778 138.674 1.87808C137.705 1.87808 136.735 1.87807 135.777 1.87807ZM97.1356 1.90837C97.114 1.86509 97.1033 1.82182 97.0817 1.77855C97.3618 1.74826 97.6419 1.69633 97.9327 1.68334C99.7318 1.5968 101.542 1.51025 103.341 1.44101C104.245 1.40639 105.15 1.39341 106.055 1.40639C107.833 1.43236 109.61 1.48861 111.377 1.52756C111.926 1.54054 112.465 1.52756 113.014 1.52756C112.055 1.59247 111.108 1.63142 110.16 1.68767C109.535 1.72229 108.738 1.69633 108.328 1.85211C107.833 2.04251 107.423 1.99058 106.939 1.99058C106.551 1.99058 106.163 1.98193 105.764 1.98193C104.633 1.98193 103.502 2.00357 102.382 1.98193C102.145 1.97761 101.929 1.83048 101.649 1.72229C100.324 2.1507 98.6976 1.81316 97.1356 1.90837ZM290.933 4.36631C290.89 4.38362 291.073 4.25813 291.191 4.27111C291.999 4.34035 292.947 4.35333 293.561 4.55239C294.542 4.86828 295.425 4.94185 296.319 4.72548C296.718 4.84665 297.03 4.94185 297.429 5.06301C297.526 4.90723 297.579 4.81202 297.601 4.78606C299.863 4.78606 302.05 4.78606 304.312 4.78606C305.088 5.06734 306.176 5.06301 307.232 5.0933C307.522 5.10196 307.813 5.0933 308.104 5.0933C308.104 5.12792 308.104 5.15821 308.104 5.19283C307.716 5.21447 307.339 5.26207 306.951 5.25342C305.465 5.22313 303.989 5.16687 302.513 5.14523C300.79 5.11927 299.066 5.14523 297.353 5.10629C295.63 5.06301 293.917 4.96781 292.193 4.88559C292.032 4.87694 291.838 4.84664 291.73 4.79904C291.493 4.68653 291.288 4.56104 290.933 4.36631ZM83.9931 2.17233C79.8026 2.17233 75.6983 2.17233 71.594 2.17233C71.594 2.11175 71.5832 2.05117 71.5832 1.99058C73.5007 1.94298 75.4074 1.87375 77.325 1.85211C78.6823 1.8348 80.0396 1.92135 81.3862 1.8824C82.3126 1.86077 83.1852 1.79585 83.9931 2.17233ZM20.8232 2.1031C20.8125 2.06415 20.8017 2.02087 20.8017 1.98193C22.1159 1.90836 23.4194 1.80451 24.7444 1.77421C25.8432 1.74825 26.9636 1.82182 28.0731 1.82614C28.9457 1.82614 29.8075 1.7872 30.4323 1.76989C30.777 1.93433 30.9817 2.02953 31.1433 2.1031C29.7644 2.3411 28.3209 1.96462 26.8127 2.25455C25.854 2.4363 24.529 2.25022 23.3655 2.23291C23.3655 2.18531 23.3548 2.13771 23.3548 2.08578C24.0227 2.04684 24.6906 2.00356 25.4231 1.96029C23.7856 1.73094 22.3637 2.30648 20.8232 2.1031ZM337.976 15.0159C337.933 15.0592 337.89 15.1025 337.847 15.1457C337.438 15.0419 337.039 14.8818 336.597 14.8515C336.102 14.8169 335.574 14.9077 335.025 14.9424C334.885 14.8601 334.712 14.7519 334.529 14.6438C334.518 14.6827 334.507 14.726 334.497 14.7649C333.915 14.8212 333.333 14.8991 332.741 14.925C332.321 14.9467 331.717 14.8169 331.47 14.9034C330.683 15.1717 330.112 14.9294 329.455 14.8125C329.865 14.7909 330.285 14.7693 330.899 14.739C330.565 14.6697 330.435 14.6438 330.058 14.5659C332.041 14.5659 333.743 14.5659 335.455 14.5659C335.725 14.5659 336.016 14.5702 336.274 14.5399C336.953 14.462 337.502 14.5139 337.922 14.8125C337.772 14.8472 337.621 14.8774 337.438 14.9164C337.632 14.951 337.804 14.9813 337.976 15.0159ZM100.723 3.64363C101.24 3.58738 101.66 3.50948 102.091 3.50083C103.556 3.47919 105.01 3.12002 106.508 3.45756C106.615 3.48352 106.917 3.46621 106.928 3.44458C107.1 3.16762 107.617 3.29745 107.962 3.28879C108.63 3.27148 109.309 3.27581 109.966 3.31475C110.321 3.33639 110.655 3.4489 111 3.51814C110.957 3.56141 110.914 3.60036 110.881 3.64363C107.531 3.64363 104.181 3.64363 100.723 3.64363ZM31.2941 1.84778C33.8795 1.84778 36.508 1.84778 39.1257 1.84778C39.1257 1.90403 39.1365 1.96462 39.1365 2.02087C38.7917 2.03818 38.4578 2.05982 38.1131 2.06848C37.6714 2.08146 37.2297 2.07713 36.7881 2.09011C36.3033 2.10742 35.8185 2.14637 35.323 2.15935C34.6013 2.18099 33.8687 2.19397 33.147 2.1983C32.3929 2.20262 31.6819 2.12473 31.2941 1.84778ZM187.441 3.02915C187.441 3.05512 187.441 3.08541 187.441 3.11137C187.172 3.15465 186.849 3.17196 186.655 3.24985C186.321 3.38833 186.364 3.4013 186.106 3.25417C186.019 3.20657 185.793 3.15032 185.718 3.16763C184.393 3.48785 183.079 3.15032 181.797 3.11137C180.999 3.08541 180.127 2.9729 179.265 2.94261C178.942 2.92963 178.63 2.895 178.306 2.86904C178.317 2.84308 178.328 2.81711 178.339 2.79548C180.084 2.79548 181.818 2.79548 183.574 2.79548C183.553 2.83875 183.52 2.92962 183.488 3.02482C184.856 3.02915 186.149 3.02915 187.441 3.02915ZM85.9429 3.70421C85.9645 3.75182 85.9861 3.79509 85.9968 3.84269C83.5838 4.0504 81.1277 4.07637 78.6284 3.99415C79.2856 3.85567 79.9642 3.76047 80.6537 3.6869C80.8368 3.6696 81.1384 3.68691 81.2462 3.73883C81.6986 3.96818 82.0756 3.90327 82.4958 3.73451C82.6143 3.6869 82.7974 3.6393 82.9482 3.64363C83.95 3.65661 84.9411 3.68258 85.9429 3.70421ZM26.7697 4.11531C26.7804 4.12397 26.7804 4.13262 26.7912 4.1456C23.9473 4.30139 21.1141 4.45285 18.2702 4.60863C18.4641 4.44852 18.7441 4.33168 19.0458 4.31437C20.3923 4.23215 21.7497 4.15858 23.107 4.12397C24.3135 4.09367 25.5416 4.11531 26.7697 4.11531ZM331.416 13.8865C331.427 13.8519 331.437 13.8216 331.448 13.787C331.954 13.7653 332.493 13.6917 332.978 13.7307C333.592 13.7783 334.249 13.735 334.809 13.9774C335.132 14.1158 335.886 14.1202 336.436 14.1028C337.114 14.0855 337.254 14.0812 337.632 14.4274C335.714 14.3019 333.893 14.1851 332.084 14.0682C332.084 14.0509 332.084 14.0379 332.094 14.0206C332.698 14.0206 333.301 14.0206 333.904 14.0206C333.904 14.0033 333.904 13.9817 333.915 13.9644C333.075 13.9384 332.245 13.9124 331.416 13.8865ZM22.3098 3.98116C22.2991 3.94654 22.2775 3.91193 22.2668 3.87731C23.958 3.78643 25.6385 3.69556 27.3729 3.60036C27.2759 4.08502 28.2024 3.83403 28.7303 3.98116C26.5111 3.98116 24.4105 3.98116 22.3098 3.98116ZM141.981 1.97328C142.014 2.00357 142.046 2.03819 142.089 2.06848C141.551 2.09877 141.012 2.12907 140.527 2.15503C141.023 1.49727 142.369 1.65738 143.382 1.62277C144.491 1.58382 145.763 1.37178 146.764 1.83913C146.474 1.86942 146.161 1.88241 145.903 1.83913C144.728 1.62277 143.543 1.77855 142.359 1.79586C142.218 1.80019 142.1 1.91269 141.981 1.97328ZM39.0718 2.3887C37.1436 2.55746 35.2045 2.82576 33.3947 2.41466C35.2045 2.42332 37.1328 2.15502 39.0718 2.3887ZM331.319 13.9124C331.351 13.9427 331.383 13.973 331.405 14.0076C331.287 14.0509 331.179 14.0899 331.039 14.1418C331.211 14.1634 331.373 14.1851 331.405 14.1894C331.308 14.2716 331.2 14.3582 331.071 14.4663C329.994 14.3365 328.777 14.1937 327.516 14.0423C328.766 13.6874 330.091 14.1461 331.319 13.9124ZM119.456 2.37139C119.456 2.33678 119.445 2.29783 119.445 2.26321C119.919 2.26321 120.404 2.27187 120.878 2.26321C121.88 2.23725 122.914 2.24157 123.884 2.15503C124.573 2.09445 124.681 2.06415 124.886 2.40169C123.076 2.43198 121.255 2.54449 119.456 2.37139ZM162.072 2.23725C160.963 2.1983 160.068 2.16801 159.196 2.13772C159.196 2.06416 159.196 1.99059 159.196 1.92135C159.767 1.95597 160.273 1.98193 161.049 2.02954C160.693 1.93434 160.575 1.89971 160.392 1.85211C161.975 1.81317 163.462 1.77855 164.948 1.7396C164.948 1.76557 164.959 1.79586 164.959 1.82182C163.828 1.90404 162.697 1.98194 161.458 2.07281C161.674 2.13339 161.781 2.15935 162.072 2.23725ZM65.0982 2.07713C65.0874 2.03386 65.0767 1.99058 65.0659 1.94298C66.7356 1.89105 68.4161 1.8348 70.0858 1.78287C70.0966 1.82615 70.1074 1.86509 70.1182 1.90836C68.5023 2.21128 66.7679 1.99491 65.0982 2.07713ZM191.481 2.67431C192.645 2.50555 193.743 2.25456 194.918 2.6094C194.702 2.87337 194.12 2.89068 193.592 2.86472C192.903 2.83442 192.224 2.74788 191.481 2.67431ZM334.184 7.97099C333.947 8.28689 330.909 8.27391 329.326 7.97099C330.963 7.97099 332.536 7.97099 334.184 7.97099ZM187.344 2.79548C188.583 2.71759 189.865 2.62671 191.093 2.89068C189.811 2.96857 188.508 3.27581 187.344 2.79548ZM339.452 8.97061C338.364 9.20429 337.567 8.94032 336.748 8.67202C337.158 8.65471 337.556 8.71097 337.955 8.72828C338.127 8.73261 338.299 8.64606 338.493 8.62009C338.763 8.58115 339.053 8.55519 339.334 8.53355C339.387 8.52922 339.463 8.57682 339.581 8.61577C339.398 8.68933 339.237 8.75424 339.064 8.81915C339.226 8.87974 339.344 8.92734 339.452 8.97061ZM110.213 2.4839C110.17 2.44063 110.138 2.39303 110.095 2.34976C109.061 2.24157 107.951 2.37572 106.917 2.25023C108.317 2.19397 109.707 2.13772 111.108 2.08146C111.151 2.12473 111.194 2.17234 111.237 2.21561C110.903 2.30649 110.558 2.39736 110.213 2.4839ZM92.3849 2.27619C92.3849 2.25888 92.3849 2.23724 92.3741 2.21993C92.9989 2.1983 93.6238 2.16368 94.2486 2.1507C94.8734 2.13772 95.5089 2.14637 96.1338 2.14637C96.0907 2.15503 95.9399 2.17666 95.7029 2.21561C96.0691 2.30648 96.2738 2.35841 96.64 2.44928C95.078 2.3887 93.7315 2.33245 92.3849 2.27619ZM114.102 3.34937C112.971 3.61767 111.883 3.58305 111.538 3.34937C112.4 3.34937 113.251 3.34937 114.102 3.34937ZM365.812 18.6119C367.665 18.3869 368.764 18.4172 369.066 18.7374C367.967 18.6985 366.9 18.6552 365.812 18.6119ZM325.038 15.0635C325.028 15.1241 325.017 15.1847 325.006 15.2409C323.757 15.1674 322.507 15.0938 321.257 15.0202C321.721 14.951 322.184 14.938 322.636 14.9553C323.089 14.9726 323.53 15.0202 323.972 15.0419C324.327 15.0635 324.683 15.0592 325.038 15.0635ZM47.1404 2.68729C47.1297 2.73056 47.1297 2.76951 47.1189 2.81278C46.1494 3.00318 45.3522 2.73489 44.4688 2.66132C44.4904 2.61372 44.5012 2.56612 44.5227 2.51419C45.4061 2.57045 46.2679 2.6267 47.1404 2.68729ZM253.735 3.40131C254.651 3.40131 255.567 3.40131 256.741 3.40131C255.674 3.64797 255.674 3.64797 253.735 3.40131ZM78.65 2.54448C79.7919 2.26753 80.3197 2.2935 81.063 2.66565C80.2443 2.62238 79.501 2.58776 78.65 2.54448ZM334.13 11.9089C334.938 11.9089 335.671 11.9089 336.436 11.9089C336.177 12.2334 335.272 12.2334 334.13 11.9089ZM39.3304 2.00356C40.3861 1.96894 41.1833 1.94298 42.0989 1.91269C41.2479 2.36706 40.4184 2.168 39.3304 2.00356ZM332.148 25.6612C332.148 25.6872 332.148 25.7131 332.148 25.7348C331.373 25.7348 330.586 25.7348 329.8 25.7348C329.832 25.7045 329.886 25.6352 329.929 25.5833C330.683 25.6093 331.416 25.6352 332.148 25.6612ZM117.194 1.95164C117.216 1.98626 117.237 2.02088 117.259 2.0555C116.138 2.12041 115.029 2.18532 113.908 2.25455C113.898 2.22859 113.898 2.20263 113.887 2.17666C114.986 2.1031 116.084 2.02953 117.194 1.95164ZM336.921 8.99225C335.843 8.99225 334.863 8.99225 333.678 8.99225C334.863 8.86243 335.843 8.7629 336.921 8.99225ZM113.65 3.83837C112.874 3.95953 112.303 4.05473 111.711 4.1283C111.635 4.13695 111.474 4.02444 111.345 3.96818C111.474 3.92491 111.592 3.84702 111.732 3.84269C112.271 3.82971 112.81 3.83837 113.65 3.83837ZM289.608 4.06339C289.575 4.08936 289.554 4.11965 289.522 4.14562C288.875 4.08503 288.229 4.02445 287.69 3.97685C287.798 3.87732 287.884 3.7951 288.013 3.68259C288.498 3.7951 289.058 3.92925 289.608 4.06339Z" fill="url(#paint0_linear_9752_5593)"/>
<defs>
<linearGradient id="paint0_linear_9752_5593" x1="378.458" y1="34.0044" x2="94.2011" y2="-143.991" gradientUnits="userSpaceOnUse">
<stop stop-color="#533CA3"/>
<stop offset="0.294518" stop-color="#BF5AB8"/>
<stop offset="0.682384" stop-color="#ED641F"/>
<stop offset="1" stop-color="#FFE322"/>
</linearGradient>
</defs>
</svg>
